<?xml version="1.0" encoding="utf-8"?>
<!-- Generator: Adobe Illustrator 23.0.4, SVG Export Plug-In . SVG Version: 6.00 Build 0)  -->
<svg version="1.1" id="Layer_1" xmlns="http://www.w3.org/2000/svg" xmlns:xlink="http://www.w3.org/1999/xlink" x="0px" y="0px"
	 viewBox="0 0 149.806 45" style="enable-background:new 0 0 149.806 45;" xml:space="preserve">
<style type="text/css">
	.st0{fill:#EA495D;}
	.st1{fill:#CC3A3A;}
</style>
<g>
	<path class="st0" d="M25.384,6.488c2.281-0.426,3.502,1.322,2.671,3.92l-1.705,5.309l-8.431,1.574l1.748-5.42l-2.275,0.528
		l-3.618,11.28c1.785-0.333,3.666-0.736,5.502-1.079c2.48-0.463,4.563,0.656,3.531,4.019l-3.539,10.953
		c-1.098,3.116-1.998,4.687-5.37,5.317l-10.96,2.046c-2.331,0.435-3.502-1.322-2.671-3.92l1.663-5.197l8.431-1.574l-1.755,5.318
		l2.281-0.426l3.664-11.34c-2.033,0.379-3.617,0.727-5.601,1.097c-3.518,0.709-4.188-1.818-3.481-4.029l3.585-11.013l-1.92-3.956
		C13.631,8.682,18.937,7.692,25.384,6.488z"/>
	<path class="st0" d="M28.263,21.078l1.587-4.819l-1.97-3.947l7.687-1.435c2.281-0.426,3.502,1.322,2.671,3.92l-1.495,4.698
		l6.348-1.185c2.331-0.435,3.552,1.312,2.72,3.911l-3.625,11.177l1.92,3.956c-0.843,0.157-4.166,0.777-7.042,1.314
		c-3.174,0.592-3.755-2.106-3.256-3.655l3.565-11.322l-2.136,0.347l-5.067,15.916c-1.637,0.305-2.628,0.49-4.265,0.796
		c-2.331,0.435-3.552-1.312-2.72-3.911l3.625-11.177l-1.92-3.956L28.263,21.078z"/>
	<path class="st0" d="M46.882,36.784c-2.331,0.435-3.413-1.494-2.628-4.032l1.716-5.154c0.963-2.883,2.613-2.983,4.25-3.288
		l7.145-1.282l0.985-3.303l-6.546,1.222l-1.871-3.965c6.596-1.231,7.588-1.416,14.184-2.647c2.331-0.435,3.502,1.322,2.621,3.929
		l-3.575,11.168l1.871,3.965C58.487,34.618,53.478,35.553,46.882,36.784z M54.685,31.065l1.223-3.503l-2.132,0.398l-1.173,3.494
		L54.685,31.065z"/>
	<path class="st0" d="M81.478,11.146l1.538-4.809l-1.97-3.947l7.687-1.435c2.281-0.426,3.502,1.322,2.671,3.92l-1.827,5.747
		c-0.043,0.112-1.12,3.536-1.163,3.648l-1.712,5.206l-1.866,5.91l1.92,3.956L68.508,32.8c-2.331,0.435-3.502-1.322-2.72-3.911
		l3.625-11.177c0.789-2.486,2.59-4.85,4.676-5.187L81.478,11.146z M79.972,15.69l-2.133,0.398L74.229,27.47l2.133-0.398l1.952-6.134
		L79.972,15.69z"/>
	<path class="st0" d="M108.206,6.106c2.331-0.435,3.502,1.322,2.671,3.92l-3.575,11.167c-1.252,3.82-2.147,4.715-5.618,5.363
		c-3.571,0.666-7.141,1.333-10.712,1.999c-2.331,0.435-3.502-1.322-2.671-3.92l3.575-11.167l-1.821-3.975
		C96.105,8.364,102.155,7.235,108.206,6.106z M98.824,22.827l3.661-11.391l-2.133,0.398l-3.71,11.401L98.824,22.827z"/>
	<path class="st0" d="M113.143,24.469c-2.331,0.435-3.552-1.312-2.72-3.911l3.625-11.177l-1.771-3.984l6.894-1.287
		c3.27-0.662,3.755,2.106,3.256,3.655l-3.565,11.322l2.033-0.38c0,0,0.046-0.061,0.043-0.112l5.027-15.753l3.72-0.694
		c3.22-0.653,3.755,2.106,3.256,3.655l-3.565,11.322l2.136-0.347l5.067-15.916c1.637-0.305,2.628-0.491,4.265-0.796
		c2.331-0.435,3.552,1.312,2.72,3.911l-3.625,11.177l1.92,3.956C132.286,20.897,122.715,22.683,113.143,24.469z"/>
</g>
<g>
	<path class="st1" d="M46.554,5.15L45.29,9.039l0.718-0.134l1.779-5.507l1.452-0.271c0.803-0.15,1.207,0.455,0.937,1.347
		l-3.045,9.361l0.662,1.363l-2.614,0.488c-0.786,0.147-1.225-0.47-0.92-1.35l1.264-3.889l-0.718,0.134l-1.796,5.511l-1.435,0.268
		c-0.803,0.15-1.208-0.473-0.937-1.347l1.264-3.889l-0.017,0.003l-0.676-1.324l1.179-0.22l1.261-3.925l-0.627-1.369l2.614-0.488
		C46.419,3.653,46.823,4.258,46.554,5.15z"/>
	<path class="st1" d="M55.49,7.135c0.803-0.15,1.207,0.455,0.92,1.351l-1.232,3.847c-0.431,1.316-0.74,1.625-1.936,1.848
		c-1.23,0.23-2.461,0.459-3.691,0.689c-0.803,0.15-1.207-0.455-0.92-1.35l1.232-3.847l-0.627-1.369
		C51.321,7.913,53.406,7.524,55.49,7.135z M52.258,12.896l1.261-3.924l-0.735,0.137l-1.278,3.928L52.258,12.896z"/>
	<path class="st1" d="M63.333,5.672c0.803-0.15,1.224,0.452,0.92,1.351l-1.249,3.851l0.679,1.36
		c-0.308,0.057-1.435,0.268-2.443,0.456c-1.11,0.225-1.277-0.729-1.122-1.259l1.211-3.897l-0.702,0.113l-1.763,5.487
		c-0.564,0.105-0.906,0.169-1.469,0.274c-0.786,0.147-1.224-0.452-0.92-1.35l1.232-3.847l-0.644-1.366
		C62.342,5.856,58.993,6.482,63.333,5.672z"/>
	<path class="st1" d="M69.485,4.541l0.53-1.657l-0.679-1.36l2.648-0.494c0.786-0.147,1.207,0.455,0.92,1.35l-0.629,1.98
		c-0.015,0.039-0.386,1.218-0.401,1.257l-0.59,1.793l-0.643,2.036l0.662,1.363l-6.287,1.191c-0.803,0.15-1.207-0.455-0.937-1.347
		l1.249-3.851c0.272-0.856,0.892-1.671,1.611-1.787L69.485,4.541z M68.966,6.107l-0.735,0.137l-1.244,3.921l0.735-0.137l0.672-2.113
		L68.966,6.107z"/>
	<path class="st1" d="M72.208,10.641c-0.803,0.15-1.176-0.515-0.906-1.389l0.591-1.776c0.332-0.993,0.9-1.028,1.464-1.133
		l2.462-0.442l0.339-1.138l-2.255,0.421l-0.644-1.366c2.273-0.424,2.614-0.488,4.887-0.912c0.803-0.15,1.207,0.455,0.903,1.354
		l-1.232,3.847l0.644,1.366C76.206,9.895,74.481,10.217,72.208,10.641z M74.897,8.671l0.421-1.207l-0.735,0.137l-0.404,1.204
		L74.897,8.671z"/>
</g>
<g>
	<path class="st1" d="M118.998,32.559l-0.514,1.623l-2.003,0.374c-1.07,0.2-1.608-0.606-1.226-1.799l0.558-1.655l1.935-0.361
		C118.817,30.541,119.357,31.371,118.998,32.559z"/>
	<path class="st1" d="M130.079,23.142c1.07-0.2,1.63,0.603,1.226,1.8l-1.664,5.13l0.904,1.812c-0.41,0.076-1.912,0.357-3.256,0.608
		c-1.478,0.3-1.701-0.971-1.495-1.678l1.614-5.193l-0.935,0.151l-2.349,7.31c-0.751,0.14-1.207,0.225-1.958,0.365
		c-1.047,0.195-1.63-0.603-1.226-1.799l1.641-5.126l-0.859-1.82C128.759,23.388,124.297,24.221,130.079,23.142z"/>
	<path class="st1" d="M140.735,21.177c1.07-0.2,1.63,0.603,1.226,1.8l-0.21,0.659l-3.87,0.722l0.205-0.73l-0.956,0.178
		c-0.126,0.524-0.321,1.062-0.493,1.595l3.233-0.603l0.877,1.745l-4.781,0.892l-0.493,1.595l0.956-0.178
		c0.077-0.229,0.133-0.43,0.21-0.659l3.87-0.722l-0.211,0.636c-0.552,1.749-0.941,2.132-2.533,2.453
		c-1.639,0.306-3.301,0.616-4.94,0.922c-1.07,0.2-1.63-0.603-1.226-1.8l1.664-5.13l-0.881-1.816
		C135.157,22.218,137.957,21.695,140.735,21.177z"/>
	<path class="st1" d="M141.836,27.7l1.641-5.126l-0.971-1.775l1.639-0.306l0.707-2.184l-0.881-1.816l3.529-0.659
		c1.047-0.195,1.585,0.611,1.226,1.799l-0.688,2.133l0.911-0.17l0.857,1.796l-2.436,0.455l-1.682,5.206l0.881,1.816l-3.483,0.65
		C142.017,29.718,141.453,28.869,141.836,27.7z"/>
</g>
</svg>
